<svg version="1.0" xmlns="http://www.w3.org/2000/svg"
 width="500.000000pt" height="500.000000pt" viewBox="0 0 500.000000 500.000000"
 preserveAspectRatio="xMidYMid meet" class="logoProfil">
<g transform="translate(0.000000,500.000000) scale(0.077160,-0.077160)" stroke="none">
<path d="M3015 6460 c-1227 -77 -2317 -870 -2775 -2020 -103 -259 -167 -513
-206 -815 -23 -179 -23 -590 0 -770 80 -626 308 -1167 695 -1647 56 -70 115
-138 131 -152 42 -35 99 -42 153 -18 53 24 59 38 87 197 98 569 411 1069 874
1402 50 35 96 61 103 59 6 -3 45 -32 85 -64 567 -457 1414 -496 2027 -92 47
31 115 80 150 108 35 29 68 52 72 52 4 0 42 -25 85 -56 232 -166 434 -383 589
-629 123 -195 232 -467 281 -700 l23 -110 -84 -81 c-770 -749 -1860 -1023
-2890 -728 -153 44 -367 130 -515 205 -91 47 -125 59 -161 59 -99 0 -157 -100
-113 -193 19 -40 23 -43 194 -128 318 -157 665 -259 1045 -305 208 -25 581
-23 787 5 853 114 1582 524 2112 1186 377 470 605 1020 682 1640 26 206 23
578 -5 789 -74 551 -262 1030 -582 1479 -39 53 -81 104 -94 113 -60 40 -161
21 -189 -35 -40 -77 -30 -115 62 -240 188 -253 357 -597 448 -913 250 -872 85
-1817 -446 -2547 l-33 -44 -33 114 c-153 528 -511 1012 -979 1326 -204 136
-227 137 -367 7 -195 -179 -435 -302 -709 -361 -119 -26 -438 -26 -559 0 -270
58 -516 183 -708 361 -142 131 -162 130 -379 -15 -268 -180 -534 -456 -703
-729 -115 -184 -230 -447 -276 -627 -14 -56 -21 -70 -31 -61 -23 19 -160 231
-223 344 -146 265 -259 582 -315 884 -60 321 -60 739 0 1060 211 1131 1060
2045 2170 2335 282 74 520 100 829 92 399 -11 741 -87 1096 -244 72 -32 145
-58 171 -60 57 -6 102 15 124 57 22 42 19 116 -5 150 -24 34 -137 89 -322 159
-443 166 -887 231 -1373 201z"/>
<path d="M3040 5409 c-469 -74 -866 -418 -1004 -869 -219 -720 225 -1468 957
-1611 199 -39 475 -21 657 43 297 104 527 294 684 563 175 300 213 697 99
1035 -149 444 -535 768 -1003 840 -77 12 -312 11 -390 -1z m319 -259 c430 -54
784 -393 860 -824 16 -87 13 -266 -5 -354 -63 -310 -292 -592 -584 -718 -115
-50 -219 -74 -345 -81 -451 -23 -865 276 -1002 723 -24 81 -27 104 -27 259 -1
147 2 181 22 255 90 335 347 600 682 704 137 43 256 53 399 36z"/>
</g>
</svg>
