<?xml version="1.0" encoding="UTF-8" standalone="no"?>
<svg
   viewBox="0 0 903.36892 630.1"
   class="logoIndex"
   version="1.1"
   id="svg153"
   sodipodi:docname="carton.svg"
   width="903.3689"
   height="630.09998"
   inkscape:version="1.2.1 (9c6d41e410, 2022-07-14)"
   xmlns:inkscape="http://www.inkscape.org/namespaces/inkscape"
   xmlns:sodipodi="http://sodipodi.sourceforge.net/DTD/sodipodi-0.dtd"
   xmlns="http://www.w3.org/2000/svg"
   xmlns:svg="http://www.w3.org/2000/svg">
  <defs
     id="defs157" />
  <sodipodi:namedview
     id="namedview155"
     pagecolor="#ffffff"
     bordercolor="#000000"
     borderopacity="0.25"
     inkscape:showpageshadow="2"
     inkscape:pageopacity="0.0"
     inkscape:pagecheckerboard="0"
     inkscape:deskcolor="#d1d1d1"
     showgrid="false"
     inkscape:zoom="1.2918585"
     inkscape:cx="452.0619"
     inkscape:cy="66.18372"
     inkscape:window-width="1920"
     inkscape:window-height="1001"
     inkscape:window-x="-9"
     inkscape:window-y="-9"
     inkscape:window-maximized="1"
     inkscape:current-layer="svg153" />
  <g
     id="g151"
     transform="translate(-0.01545079)">
    <path
       d="M 90,65.52 447,0 346.24,235 a 13.85,13.85 0 0 1 -11.44,8.33 l -319.64,30 A 13.85,13.85 0 0 1 1.34,253.63 Z"
       id="path143" />
    <path
       d="m 447,0 105.78,227.18 a 39.14,39.14 0 0 0 32.65,22.5 l 303.17,22 a 13.79,13.79 0 0 0 13.62,-19.3 L 819.49,64 Z"
       id="path145" />
    <path
       d="m 802.62,558 a 11.25,11.25 0 0 0 8.87,-11 V 335.89 a 11.27,11.27 0 0 0 -9.78,-11.17 L 760.24,319.21 516.49,299 473.49,180.59 V 630.1"
       id="path147" />
    <path
       d="m 389,293.92 a 11.25,11.25 0 0 1 -10,7.52 l -277.87,15.49 a 11.26,11.26 0 0 0 -10.64,11.24 v 223.64 a 11.26,11.26 0 0 0 9,11 l 319,67 V 181.68"
       id="path149" />
  </g>
</svg>
