<svg
   viewBox="0 0 576 448"
   version="1.1"
   id="svg169"
   sodipodi:docname="paiement.svg"
   width="576"
   height="448"
   inkscape:version="1.2.1 (9c6d41e410, 2022-07-14)"
   xmlns:inkscape="http://www.inkscape.org/namespaces/inkscape"
   xmlns:sodipodi="http://sodipodi.sourceforge.net/DTD/sodipodi-0.dtd"
   xmlns="http://www.w3.org/2000/svg"
   xmlns:svg="http://www.w3.org/2000/svg">
  <defs
     id="defs173" />
  <sodipodi:namedview
     id="namedview171"
     pagecolor="#ffffff"
     bordercolor="#000000"
     borderopacity="0.25"
     inkscape:showpageshadow="2"
     inkscape:pageopacity="0.0"
     inkscape:pagecheckerboard="0"
     inkscape:deskcolor="#d1d1d1"
     showgrid="false"
     inkscape:zoom="1.5898438"
     inkscape:cx="288.07862"
     inkscape:cy="141.20884"
     inkscape:window-width="1920"
     inkscape:window-height="1001"
     inkscape:window-x="-9"
     inkscape:window-y="-9"
     inkscape:window-maximized="1"
     inkscape:current-layer="svg169" />
  <path
     d="m 168,304 c 13.3,0 24,10.7 24,24 0,13.3 -10.7,24 -24,24 h -48 c -13.3,0 -24,-10.7 -24,-24 0,-13.3 10.7,-24 24,-24 z m 192,0 c 13.3,0 24,10.7 24,24 0,13.3 -10.7,24 -24,24 H 248 c -13.3,0 -24,-10.7 -24,-24 0,-13.3 10.7,-24 24,-24 z M 512,0 c 35.3,0 64,28.65 64,64 v 320 c 0,35.3 -28.7,64 -64,64 H 64 C 28.65,448 0,419.3 0,384 V 64 C 0,28.65 28.65,0 64,0 Z m 0,48 H 64 C 55.16,48 48,55.16 48,64 V 96 H 528 V 64 c 0,-8.84 -7.2,-16 -16,-16 z m 16,144 H 48 v 192 c 0,8.8 7.16,16 16,16 h 448 c 8.8,0 16,-7.2 16,-16 z"
     id="path167" />
</svg>
