<svg width="25" height="25" viewBox="0 0 25 25" fill="none" xmlns="http://www.w3.org/2000/svg">
    <path fill="#D9D9D9" d="M11.5489 2.92705C11.8483 2.00574 13.1517 2.00574 13.4511 2.92705L15.0819 7.9463C15.2158 8.35833 15.5997 8.63729 16.033 8.63729H21.3105C22.2792 8.63729 22.682 9.8769 21.8983 10.4463L17.6287 13.5484C17.2782 13.803 17.1315 14.2544 17.2654 14.6664L18.8963 19.6857C19.1956 20.607 18.1411 21.3731 17.3574 20.8037L13.0878 17.7016C12.7373 17.447 12.2627 17.447 11.9122 17.7016L7.64258 20.8037C6.85887 21.3731 5.80439 20.607 6.10374 19.6857L7.7346 14.6664C7.86847 14.2544 7.72181 13.803 7.37132 13.5484L3.10169 10.4463C2.31798 9.8769 2.72075 8.63729 3.68948 8.63729H8.96703C9.40026 8.63729 9.78421 8.35833 9.91809 7.9463L11.5489 2.92705Z"/>
</svg>