<?xml version="1.0" encoding="utf-8"?><!-- Uploaded to: SVG Repo, www.svgrepo.com, Generator: SVG Repo Mixer Tools -->
<svg viewBox="0 0 24 24" fill="none" xmlns="http://www.w3.org/2000/svg" class="checkmark">
<path d="M18.2086 9.70558C18.5983 9.31421 18.5969 8.68105 18.2056 8.29137C17.8142 7.90169 17.1811 7.90305 16.7914 8.29442L11.0215 14.0892L7.70214 10.816C7.30888 10.4283 6.67573 10.4327 6.28796 10.8259C5.90018 11.2192 5.90461 11.8524 6.29787 12.2401L10.3258 16.212C10.7177 16.5985 11.3483 16.5956 11.7366 16.2056L18.2086 9.70558Z" fill="#000000"/>
<path fill-rule="evenodd" clip-rule="evenodd" d="M4.5 2C3.11929 2 2 3.11929 2 4.5V19.5C2 20.8807 3.11929 22 4.5 22H19.5C20.8807 22 22 20.8807 22 19.5V4.5C22 3.11929 20.8807 2 19.5 2H4.5ZM4 4.5C4 4.22386 4.22386 4 4.5 4H19.5C19.7761 4 20 4.22386 20 4.5V19.5C20 19.7761 19.7761 20 19.5 20H4.5C4.22386 20 4 19.7761 4 19.5V4.5Z" fill="#000000"/>
</svg>