<?xml version="1.0" encoding="utf-8"?>
<!-- Generator: Adobe Illustrator 26.0.1, SVG Export Plug-In . SVG Version: 6.00 Build 0)  -->
<svg version="1.1"
	 inkscape:version="1.2.1 (9c6d41e410, 2022-07-14)" xmlns:inkscape="http://www.inkscape.org/namespaces/inkscape" xmlns:sodipodi="http://sodipodi.sourceforge.net/DTD/sodipodi-0.dtd" xmlns:svg="http://www.w3.org/2000/svg"
	 xmlns="http://www.w3.org/2000/svg" xmlns:xlink="http://www.w3.org/1999/xlink" x="0px" y="0px" viewBox="0 0 600.1 513.9"
	 style="enable-background:new 0 0 600.1 513.9;" xml:space="preserve" class="cart">
<style type="text/css">
	.st0{fill:none;stroke:#000000;stroke-width:30;stroke-miterlimit:10;}
</style>
<sodipodi:namedview  bordercolor="#000000" borderopacity="0.25" id="namedview12" inkscape:current-layer="svg10" inkscape:cx="326.23751" inkscape:cy="326.65684" inkscape:deskcolor="#d1d1d1" inkscape:document-units="pt" inkscape:pagecheckerboard="0" inkscape:pageopacity="0.0" inkscape:showpageshadow="2" inkscape:window-height="1001" inkscape:window-maximized="1" inkscape:window-width="1920" inkscape:window-x="-9" inkscape:window-y="-9" inkscape:zoom="1.1923828" pagecolor="#ffffff" showgrid="false">
	</sodipodi:namedview>
<g id="g8" transform="matrix(0.1,0,0,-0.1,-11.1,500.8)">
	<path id="path2" d="M4711,1800.2c-33,33-61,67-61,74c0,7.1,102.7,513.8,198,980.2c-4.8-0.2-9.7-0.2-14.5-0.2
		c-65.2,0-128.8,6.8-190.1,19.9c-87.1-422.5-193.4-939.3-193.4-942.9c0-3-602-5-1337-4l-1337,3l-158,740c-87,407-158,746-158,753
		c0,9,337,12,1650,12h873.1c-26,66.5-44.4,136.9-54.1,210h-718c-991,0-1801,3-1801,8c0,22-122,578-128,583c-7,7-937,463-1028,504
		l-50,23l-47-93l-46-93l492-237c271-130,493-238,495-239c1-2,112-529,247-1172c134-643,247-1179,250-1191l5-23h2887l51-40
		c88-71,153-186,151-270c-1-78-62-167-147-217l-47-28l-1482-3l-1483-2v-210h1468c1610,0,1517-3,1648,60c150,73,264,245,264,399
		C4910,1530.2,4836,1677.2,4711,1800.2z"/>
	<path id="path4" d="M2040,644.2c-114-22-222-108-274-219c-28-59-31-74-31-165s3-106,31-165c166-350,678-276,745,108
		c36,201-110,402-321,442C2130,656.2,2103,656.2,2040,644.2z M2228,413.2c117-78,104-257-23-318c-126-61-266,26-266,164
		c0,79,32,131,106,171C2090,454.2,2178,446.2,2228,413.2z"/>
	<path id="path6" d="M4172,644.2c-160-31-289-166-312-327c-17-123,23-246,108-331c192-192,513-142,639,99c26,51,28,64,28,165
		c0,102-2,115-31,175c-54,114-160,197-283,220C4260,656.2,4233,656.2,4172,644.2z M4359,412.2c55-36,85-103,76-165
		c-15-101-76-162-170-170c-141-12-243,124-187,250c37,85,95,121,185,114C4303,438.2,4333,429.2,4359,412.2z"/>
</g>
<g>
	<line class="st0" x1="506.8" y1="0" x2="506.8" y2="186.6"/>
	<line class="st0" x1="600.1" y1="93.3" x2="413.5" y2="93.3"/>
</g>
</svg>
