<svg version="1.0" xmlns="http://www.w3.org/2000/svg"
 width="500.000000pt" height="500.000000pt" viewBox="0 0 500.000000 500.000000"
 preserveAspectRatio="xMidYMid meet" class="logoContact">
<g transform="translate(0.000000,500.000000) scale(0.097656,-0.097656)" stroke="none">
<path d="M1755 4493 c-46 -24 -66 -45 -86 -88 -18 -38 -19 -90 -19 -1020 l0
-981 23 -44 c13 -26 40 -57 65 -75 l44 -30 1601 0 1602 0 43 25 c26 14 54 42
68 66 l24 41 0 997 c0 839 -2 1001 -14 1024 -16 31 -61 74 -93 91 -16 8 -371
11 -1286 11 -1261 0 -1264 0 -1282 -20 -24 -27 -24 -83 0 -109 18 -21 24 -21
1180 -23 l1163 -3 -674 -470 c-371 -258 -686 -474 -700 -480 -16 -6 -34 -6
-52 1 -15 6 -330 222 -701 480 l-673 469 107 5 c91 4 109 8 121 24 21 29 18
82 -6 106 -19 19 -33 20 -222 20 -165 -1 -209 -4 -233 -17z m743 -693 c486
-338 591 -415 580 -425 -7 -7 -283 -201 -613 -430 -330 -230 -612 -426 -627
-437 l-28 -19 0 896 0 897 48 -35 c26 -19 314 -220 640 -447z m2470 -860 l-3
-451 -259 181 c-278 193 -302 204 -346 160 -26 -26 -30 -80 -7 -108 5 -7 107
-80 225 -162 l215 -150 -1403 0 c-773 0 -1400 4 -1395 9 6 4 286 200 624 435
l613 427 55 -21 c70 -26 141 -26 204 1 l50 22 42 -30 c247 -175 507 -352 525
-358 33 -10 78 12 92 45 25 59 11 73 -259 261 -139 98 -251 181 -249 185 1 5
288 208 638 451 l635 443 3 -444 c1 -245 1 -648 0 -896z"/>
<path d="M593 4141 c-63 -16 -141 -62 -193 -114 -179 -178 -308 -409 -371
-667 -21 -85 -24 -118 -24 -310 1 -200 3 -223 29 -335 220 -944 888 -1688
1792 -1996 310 -106 562 -139 808 -107 71 9 95 16 113 34 32 32 31 83 -2 114
l-25 23 -114 -13 c-307 -35 -650 42 -1041 235 -510 251 -915 659 -1166 1170
-95 195 -139 312 -191 514 -36 140 -41 172 -45 311 -6 170 3 247 42 386 73
257 284 556 419 594 56 15 140 9 187 -15 51 -26 496 -472 519 -520 26 -53 25
-98 -1 -152 -17 -34 -51 -66 -177 -161 -177 -134 -223 -180 -261 -261 -23 -49
-26 -69 -26 -156 0 -91 3 -106 31 -165 66 -137 228 -360 395 -542 145 -159
394 -359 586 -471 137 -80 249 -94 375 -47 87 32 131 72 244 223 165 219 186
237 272 237 36 0 59 -7 93 -29 66 -43 473 -458 498 -508 53 -107 33 -212 -57
-303 -66 -66 -159 -136 -253 -191 -70 -40 -79 -52 -79 -100 0 -41 32 -69 78
-69 71 0 322 177 411 290 103 131 117 325 34 470 -14 25 -139 158 -277 296
-297 296 -300 299 -451 299 -159 0 -196 -27 -384 -275 -111 -147 -151 -183
-224 -200 -68 -17 -119 -1 -239 73 -218 136 -456 344 -621 545 -97 117 -253
352 -267 400 -21 75 -6 148 42 206 16 19 101 90 189 157 173 131 207 169 236
268 21 73 13 162 -21 237 -23 50 -66 98 -279 311 -228 227 -259 255 -322 285
-61 28 -82 33 -160 35 -49 1 -104 -2 -122 -6z"/>
</g>
</svg>
