<svg xmlns="http://www.w3.org/2000/svg" viewBox="0 0 903.41 630.1" class="logoIndex">
    <g>
        <path d="M90,65.52,447,0,346.24,235a13.85,13.85,0,0,1-11.44,8.33l-319.64,30a13.85,13.85,0,0,1-13.82-19.7Z"/>
        <path d="M447,0,552.78,227.18a39.14,39.14,0,0,0,32.65,22.5l303.17,22a13.79,13.79,0,0,0,13.62-19.3L819.49,64Z"/>
        <path d="M802.62,558a11.25,11.25,0,0,0,8.87-11V335.89a11.27,11.27,0,0,0-9.78-11.17l-41.47-5.51L516.49,299l-43-118.41V630.1"/>
        <path d="M389,293.92a11.25,11.25,0,0,1-10,7.52L101.13,316.93a11.26,11.26,0,0,0-10.64,11.24V551.81a11.26,11.26,0,0,0,9,11l319,67V181.68"/>
    </g>
</svg>