<?xml version="1.0" standalone="no"?>
<svg version="1.0" xmlns="http://www.w3.org/2000/svg" viewBox="0 0 612.000000 612.000000"
 preserveAspectRatio="xMidYMid meet" class="catalogue">

<g transform="translate(0.000000,612.000000) scale(0.100000,-0.100000)"
fill="#000000" stroke="none">
<path d="M1768 5156 c-101 -27 -176 -106 -198 -210 -8 -36 -10 -588 -8 -1921
l3 -1870 22 -41 c36 -67 70 -101 131 -131 l57 -28 1360 -3 c990 -2 1367 1
1387 9 34 14 43 41 26 76 l-13 28 -1377 5 c-1371 5 -1377 5 -1404 26 -61 45
-69 66 -72 187 -2 101 0 116 20 151 13 22 39 49 58 60 35 21 46 21 1320 26
1432 6 1319 -1 1395 75 21 21 47 59 59 84 l21 46 0 1616 0 1615 -30 59 c-19
37 -46 72 -73 92 -87 66 -16 63 -1391 62 -971 0 -1256 -3 -1293 -13z m2598
-132 c15 -11 37 -33 48 -48 l21 -27 0 -1607 0 -1607 -23 -33 c-52 -72 58 -66
-1372 -72 -1199 -5 -1287 -6 -1317 -22 -18 -10 -35 -18 -38 -18 -3 0 -4 755
-3 1678 l3 1679 29 37 c16 21 43 44 60 52 26 11 246 13 1298 11 1262 -2 1267
-2 1294 -23z"/>
<path d="M2827 4228 c-13 -13 -98 -142 -188 -288 -89 -146 -167 -268 -173
-272 -6 -4 -73 -8 -149 -8 -142 0 -162 -4 -205 -44 -38 -34 -52 -81 -52 -175
0 -103 22 -160 72 -191 18 -11 37 -21 41 -23 5 -1 33 -137 63 -300 30 -164 61
-311 69 -328 9 -16 30 -39 48 -49 31 -19 55 -20 707 -20 652 0 676 1 707 20
18 10 39 33 48 49 8 17 39 164 69 328 30 163 58 299 63 300 38 13 77 50 95 89
16 38 19 62 16 144 -3 109 -15 134 -78 178 -31 20 -44 22 -184 22 -83 0 -156
4 -161 8 -6 4 -87 130 -180 281 -94 151 -180 280 -192 288 -34 23 -83 -8 -83
-52 0 -11 69 -130 154 -265 84 -135 151 -248 149 -252 -7 -14 -863 -10 -863 4
0 6 68 120 150 254 83 133 150 251 150 261 0 51 -56 75 -93 41z m1103 -698
c14 -22 12 -164 -2 -178 -17 -17 -1719 -17 -1736 0 -19 19 -16 163 4 182 14
15 101 16 870 14 747 -3 856 -5 864 -18z m-119 -315 c7 -6 -88 -524 -100 -552
l-11 -23 -639 0 c-618 0 -641 1 -650 19 -11 20 -101 503 -101 540 l0 21 748 0
c412 0 751 -2 753 -5z"/>
<path d="M2595 3126 c-23 -16 -22 -37 6 -218 13 -85 28 -150 37 -160 22 -26
68 -23 87 6 14 22 14 37 -10 186 -14 89 -25 163 -25 165 0 2 -7 11 -16 19 -19
20 -54 21 -79 2z"/>
<path d="M3016 3118 c-13 -18 -16 -54 -16 -183 0 -179 7 -205 59 -205 55 0 61
20 61 201 0 184 -7 209 -60 209 -18 0 -34 -8 -44 -22z"/>
<path d="M3446 3121 c-12 -13 -25 -69 -42 -181 -22 -149 -23 -165 -9 -186 19
-29 65 -32 87 -6 14 16 58 260 60 334 2 53 -61 78 -96 39z"/>
<path d="M1842 1354 c-30 -20 -30 -68 0 -88 20 -14 164 -16 1339 -16 1262 0
1317 1 1332 18 24 26 21 68 -5 86 -34 24 -2632 24 -2666 0z"/>
</g>
</svg>