<svg xmlns="http://www.w3.org/2000/svg" viewBox="0 0 195.91 279.56" class="logoIndex">
  <g>
    <path d="M89,79.6a14,14,0,0,0,17.8,0c29.31-24.46,2.17-67.34-6.25-78.54A3.89,3.89,0,0,0,97.45,0a3.7,3.7,0,0,0-2.77,1.08C86.32,12.26,59.42,54.94,89,79.6Z"/>
    <path d="M77.36,110.94c1.76-2.47,6.24-5.54,5.88-8.56C79.17,68.61,28.9,74.77,5.52,80.05c-6.52,1.48-7,11.8-2.8,17C18.22,116.39,50.69,148.38,77.36,110.94Z"/>
    <path d="M190.33,76.87C166.91,71.76,116.6,66,112.78,99.78c-.34,3,4.16,6,5.94,8.51,26.95,37.25,59.18,5,74.54-14.4C197.42,88.62,196.86,78.3,190.33,76.87Z"/>
    <path d="M121.51,184.17C114,118.56,97.65,121.3,97.65,121.3h-.88c-1.46-.08-16.62.59-23.28,63.05-10.68,47.44-36,65.77-36,65.77S42.12,261,76,250c.1,27.93,19.69,29.5,21.34,29.59h.89s21.35-.59,21.24-29.76c34,10.82,38.47-.14,38.47-.14S132.54,231.52,121.51,184.17Z"/>
  </g>
</svg>
