<svg version="1.0" xmlns="http://www.w3.org/2000/svg"
 width="1600.000000pt" height="1600.000000pt" viewBox="0 0 1600.000000 1600.000000"
 preserveAspectRatio="xMidYMid meet" class="logoLoupe">
<g transform="translate(0.000000,1600.000000) scale(0.100000,-0.100000)" stroke="none">
<path d="M5810 14663 c-691 -31 -1322 -193 -1921 -494 -1360 -681 -2297 -1988
-2508 -3499 -34 -242 -44 -403 -44 -670 0 -267 10 -427 44 -670 272 -1949
1741 -3511 3669 -3900 582 -117 1160 -127 1739 -29 743 124 1438 425 2035 878
76 59 147 112 158 120 18 13 31 3 184 -150 l164 -164 0 -270 0 -270 2105
-2105 2105 -2105 562 563 563 562 -2105 2105 -2105 2105 -290 0 -290 0 -154
154 c-110 110 -151 158 -145 167 4 8 35 47 67 87 175 216 365 510 508 787 428
829 595 1777 478 2725 -216 1762 -1411 3241 -3083 3819 -541 187 -1175 280
-1736 254z m495 -1343 c682 -64 1284 -306 1810 -727 141 -112 366 -337 478
-478 390 -487 622 -1031 714 -1675 25 -179 25 -701 0 -880 -110 -765 -423
-1406 -942 -1925 -518 -518 -1161 -833 -1925 -942 -179 -25 -701 -25 -880 0
-765 110 -1406 423 -1925 942 -468 468 -775 1047 -904 1705 -39 198 -52 325
-58 575 -8 343 13 560 83 863 139 604 443 1152 879 1587 548 548 1257 878
2046 954 125 12 498 12 624 1z"/>
</g>
</svg>