<?xml version="1.0" encoding="UTF-8" standalone="no"?>
<svg
   version="1.0"
   width="490.10001pt"
   height="489.465pt"
   viewBox="0 0 490.10001 489.465"
   preserveAspectRatio="xMidYMid"
   class="logoPanier"
   id="svg10"
   sodipodi:docname="panier.svg"
   inkscape:version="1.2.1 (9c6d41e410, 2022-07-14)"
   xmlns:inkscape="http://www.inkscape.org/namespaces/inkscape"
   xmlns:sodipodi="http://sodipodi.sourceforge.net/DTD/sodipodi-0.dtd"
   xmlns="http://www.w3.org/2000/svg"
   xmlns:svg="http://www.w3.org/2000/svg">
  <defs
     id="defs14" />
  <sodipodi:namedview
     id="namedview12"
     pagecolor="#ffffff"
     bordercolor="#000000"
     borderopacity="0.25"
     inkscape:showpageshadow="2"
     inkscape:pageopacity="0.0"
     inkscape:pagecheckerboard="0"
     inkscape:deskcolor="#d1d1d1"
     inkscape:document-units="pt"
     showgrid="false"
     inkscape:zoom="1.1923828"
     inkscape:cx="326.23751"
     inkscape:cy="326.65684"
     inkscape:window-width="1920"
     inkscape:window-height="1001"
     inkscape:window-x="-9"
     inkscape:window-y="-9"
     inkscape:window-maximized="1"
     inkscape:current-layer="svg10" />
  <g
     transform="matrix(0.1,0,0,-0.1,-11.1,500.8)"
     stroke="none"
     id="g8">
    <path
       d="m 157,4915 -46,-93 492,-237 c 271,-130 493,-238 495,-239 1,-2 112,-529 247,-1172 134,-643 247,-1179 250,-1191 l 5,-23 h 1444 1443 l 51,-40 c 88,-71 153,-186 151,-270 -1,-78 -62,-167 -147,-217 l -47,-28 -1482,-3 -1483,-2 v -105 -105 h 1468 c 1610,0 1517,-3 1648,60 150,73 264,245 264,399 0,126 -74,273 -199,396 -33,33 -61,67 -61,74 0,13 342,1689 357,1749 l 5,22 H 3211 c -991,0 -1801,3 -1801,8 0,22 -122,578 -128,583 -7,7 -937,463 -1028,504 l -50,23 z M 4755,3658 c -9,-41 -305,-1476 -305,-1482 0,-3 -602,-5 -1337,-4 l -1337,3 -158,740 c -87,407 -158,746 -158,753 0,9 337,12 1650,12 h 1650 z"
       id="path2" />
    <path
       d="m 2040,889 c -114,-22 -222,-108 -274,-219 -28,-59 -31,-74 -31,-165 0,-91 3,-106 31,-165 166,-350 678,-276 745,108 36,201 -110,402 -321,442 -60,11 -87,11 -150,-1 z m 188,-231 c 117,-78 104,-257 -23,-318 -126,-61 -266,26 -266,164 0,79 32,131 106,171 45,24 133,16 183,-17 z"
       id="path4" />
    <path
       d="m 4172,889 c -160,-31 -289,-166 -312,-327 -17,-123 23,-246 108,-331 192,-192 513,-142 639,99 26,51 28,64 28,165 0,102 -2,115 -31,175 -54,114 -160,197 -283,220 -61,11 -88,11 -149,-1 z m 187,-232 c 55,-36 85,-103 76,-165 -15,-101 -76,-162 -170,-170 -141,-12 -243,124 -187,250 37,85 95,121 185,114 40,-3 70,-12 96,-29 z"
       id="path6" />
  </g>
</svg>
