<!-- Generator: Adobe Illustrator 26.0.1, SVG Export Plug-In . SVG Version: 6.00 Build 0)  -->
<svg version="1.1"
	 id="svg83" xmlns:inkscape="http://www.inkscape.org/namespaces/inkscape" xmlns:sodipodi="http://sodipodi.sourceforge.net/DTD/sodipodi-0.dtd" xmlns:svg="http://www.w3.org/2000/svg" class="logoProfil"
	 xmlns="http://www.w3.org/2000/svg" xmlns:xlink="http://www.w3.org/1999/xlink" x="0px" y="0px" viewBox="0 0 497.5 497.7"
	 style="enable-background:new 0 0 497.5 497.7;" xml:space="preserve">
<style type="text/css">
	circle{fill:#93DD72;}
</style>
<g id="g81" transform="matrix(0.07716,0,0,-0.07716,-1.29243,499.00003)">
	<path id="path77" d="M3015,6460c-1227-77-2317-870-2775-2020c-103-259-167-513-206-815c-23-179-23-590,0-770
		c80-626,308-1167,695-1647c56-70,115-138,131-152c42-35,99-42,153-18c53,24,59,38,87,197c98,569,411,1069,874,1402
		c50,35,96,61,103,59c6-3,45-32,85-64c567-457,1414-496,2027-92c47,31,115,80,150,108c35,29,68,52,72,52s42-25,85-56
		c232-166,434-383,589-629c123-195,232-467,281-700l23-110l-84-81C4535,375,3445,101,2415,396c-153,44-367,130-515,205
		c-91,47-125,59-161,59c-99,0-157-100-113-193c19-40,23-43,194-128c318-157,665-259,1045-305c208-25,581-23,787,5
		c853,114,1582,524,2112,1186c377,470,605,1020,682,1640c26,206,23,578-5,789c-74,551-262,1030-582,1479c-39,53-81,104-94,113
		c-60,40-161,21-189-35c-40-77-30-115,62-240c188-253,357-597,448-913c250-872,85-1817-446-2547l-33-44l-33,114
		c-153,528-511,1012-979,1326c-204,136-227,137-367,7c-195-179-435-302-709-361c-119-26-438-26-559,0c-270,58-516,183-708,361
		c-142,131-162,130-379-15c-268-180-534-456-703-729c-115-184-230-447-276-627c-14-56-21-70-31-61c-23,19-160,231-223,344
		c-146,265-259,582-315,884c-60,321-60,739,0,1060c211,1131,1060,2045,2170,2335c282,74,520,100,829,92c399-11,741-87,1096-244
		c72-32,145-58,171-60c57-6,102,15,124,57s19,116-5,150s-137,89-322,159C3945,6425,3501,6490,3015,6460z"/>
	<path id="path79" d="M3040,5409c-469-74-866-418-1004-869c-219-720,225-1468,957-1611c199-39,475-21,657,43
		c297,104,527,294,684,563c175,300,213,697,99,1035c-149,444-535,768-1003,840C3353,5422,3118,5421,3040,5409z M3359,5150
		c430-54,784-393,860-824c16-87,13-266-5-354c-63-310-292-592-584-718c-115-50-219-74-345-81c-451-23-865,276-1002,723
		c-24,81-27,104-27,259c-1,147,2,181,22,255c90,335,347,600,682,704C3097,5157,3216,5167,3359,5150z"/>
</g>
<circle cx="429.1" cy="407.5" r="57.9" stroke="white" stroke-width="20px"/>
</svg>
